<svg width="104" height="34" viewBox="0 0 104 34" fill="none" xmlns="http://www.w3.org/2000/svg">
<ellipse cx="1.84341" cy="17.0478" rx="1.84341" ry="1.8456" fill="#E0004D"/>
<path fill-rule="evenodd" clip-rule="evenodd" d="M73.3128 20.0965C72.1248 23.4869 68.9296 25.7563 65.3384 25.7563C63.3448 25.7563 61.4877 25.0591 60.013 23.8561V32.5509C60.013 33.3438 59.3712 34 58.5656 34C57.7736 34 57.1182 33.3575 57.1182 32.5509V19.536C57.1182 18.7294 57.7599 18.0869 58.5656 18.0869C58.6202 18.0869 58.6612 18.0869 58.7158 18.0869V18.0869C59.3166 18.0869 59.8764 18.4696 60.0813 19.0712C60.8459 21.3269 62.9624 22.8444 65.3384 22.8444C67.7007 22.8444 69.8035 21.3406 70.5819 19.1122C70.8413 18.3603 71.6742 17.9638 72.4253 18.2236C73.1763 18.5243 73.5723 19.3446 73.3128 20.0965Z" fill="#E0004D"/>
<path fill-rule="evenodd" clip-rule="evenodd" d="M72.0158 16.4053C71.4013 16.4053 70.8278 16.0088 70.6366 15.38C69.8856 12.8918 67.7145 11.1693 65.3386 11.1693C62.8124 11.1693 60.6003 12.8782 59.9722 15.3253C59.7674 16.0909 58.9891 16.5557 58.2107 16.3643C57.4324 16.1592 56.9818 15.38 57.173 14.6007C58.1425 10.8822 61.5015 8.28467 65.3386 8.28467C68.9707 8.28467 72.2752 10.8685 73.3949 14.5597C73.6271 15.3253 73.1901 16.1319 72.4254 16.3643C72.3025 16.378 72.166 16.4053 72.0158 16.4053Z" fill="#E0004D"/>
<path fill-rule="evenodd" clip-rule="evenodd" d="M9.01215 25.688C6.59524 25.688 4.28757 24.6489 2.6763 22.8307C2.60802 22.7487 2.52609 22.6666 2.45782 22.5709C1.95259 21.9557 2.04817 21.0398 2.66264 20.534C3.27711 20.0281 4.19199 20.1238 4.69722 20.739C4.73818 20.7937 4.7928 20.8484 4.84742 20.9031C5.89884 22.1061 7.42819 22.7897 9.0258 22.7897C10.6234 22.7897 12.1391 22.1061 13.2042 20.9031C13.7367 20.3015 14.6379 20.2469 15.2388 20.78C15.8396 21.3132 15.8942 22.2155 15.3617 22.817C13.7367 24.6353 11.4291 25.688 9.01215 25.688Z" fill="#E0004D"/>
<path fill-rule="evenodd" clip-rule="evenodd" d="M14.2555 13.8899C13.8322 13.8899 13.4226 13.7122 13.1358 13.3567C13.0949 13.302 13.0402 13.2473 12.9856 13.1927C11.9342 11.9896 10.4049 11.306 8.80724 11.306C7.20962 11.306 5.69393 11.9896 4.62886 13.1927C4.09632 13.7942 3.1951 13.8489 2.59428 13.3157C1.99347 12.7825 1.93885 11.8802 2.47139 11.2787C4.08266 9.46045 6.39033 8.42145 8.80724 8.42145C11.2241 8.42145 13.5318 9.46045 15.1431 11.2787C15.2114 11.3607 15.2933 11.4428 15.3616 11.5385C15.8668 12.1537 15.7712 13.0696 15.1567 13.5754C14.8973 13.7805 14.5832 13.8899 14.2555 13.8899Z" fill="#E0004D"/>
<path fill-rule="evenodd" clip-rule="evenodd" d="M94.8874 25.7153C94.7782 25.7153 94.6962 25.7153 94.6416 25.7153C91.0641 25.7016 87.8961 23.4049 86.7764 20.0008C86.5306 19.2489 86.9403 18.4286 87.6913 18.1825C88.4423 17.9364 89.2616 18.3466 89.5074 19.0985C90.2448 21.3269 92.3066 22.8307 94.6553 22.8307H94.7372C94.7509 22.8307 97.318 22.9401 99.1341 21.4362C99.7485 20.9304 100.663 21.0124 101.169 21.6276C101.674 22.2428 101.592 23.1588 100.977 23.6646C98.7108 25.5512 95.8159 25.7153 94.8874 25.7153Z" fill="#E0004D"/>
<path fill-rule="evenodd" clip-rule="evenodd" d="M103.094 17.1845C103.094 17.9911 102.452 18.6337 101.647 18.6337H91.9927C91.2008 18.6337 90.5453 17.9911 90.5453 17.1845C90.5453 16.3916 91.1871 15.7354 91.9927 15.7354H100.131C100.008 15.0245 99.7077 14.1086 99.1342 13.302C98.1647 11.9212 96.6627 11.224 94.6691 11.224C92.2522 11.224 90.1084 12.8235 89.4529 15.1202C89.2345 15.8858 88.4288 16.3369 87.6641 16.1182C86.8995 15.8995 86.4625 15.0929 86.681 14.3273C87.6915 10.8002 90.9686 8.32568 94.6691 8.32568C100.855 8.32568 103.094 13.2746 103.094 16.5967C103.094 16.7955 103.094 16.9861 103.094 17.1845Z" fill="#E0004D"/>
<path fill-rule="evenodd" clip-rule="evenodd" d="M20.5506 16.2413C20.4414 16.2413 20.3185 16.2276 20.2092 16.2003C19.4309 16.0089 18.953 15.2296 19.1442 14.4504C20.0181 10.8276 23.2679 8.2984 27.023 8.2984C30.7781 8.2984 34.0143 10.8139 34.9019 14.423C35.093 15.2023 34.6151 15.9816 33.8504 16.1729C33.0721 16.3643 32.2938 15.8859 32.1026 15.1203C31.5428 12.8372 29.4126 11.1967 27.0367 11.1967C24.6471 11.1967 22.5169 12.8509 21.9571 15.1339C21.7795 15.8038 21.1924 16.2413 20.5506 16.2413Z" fill="#E0004D"/>
<path fill-rule="evenodd" clip-rule="evenodd" d="M27.0229 25.8247C23.4316 25.8247 20.2227 23.4322 19.2396 20.0145C19.0211 19.2489 19.4581 18.4423 20.2227 18.2235C20.9874 18.0048 21.793 18.4423 22.0115 19.2079C22.6533 21.4089 24.7152 22.9401 27.0229 22.9401C29.3305 22.9401 31.3924 21.4089 32.0342 19.2215C32.2527 18.456 33.0583 18.0185 33.823 18.2372C34.5876 18.456 35.0246 19.2625 34.8061 20.0281C33.8093 23.4322 30.6004 25.8247 27.0229 25.8247Z" fill="#E0004D"/>
<path fill-rule="evenodd" clip-rule="evenodd" d="M39.5172 16.2002C39.4079 16.2002 39.285 16.1866 39.1758 16.1592C38.3975 15.9678 37.9195 15.1886 38.1107 14.4093C38.9846 10.7865 42.2345 8.25732 45.9896 8.25732C49.7446 8.25732 52.9808 10.7728 53.8684 14.382C54.0596 15.1612 53.5817 15.9405 52.817 16.1319C52.0387 16.3233 51.2603 15.8448 51.0692 15.0792C50.5093 12.7961 48.3792 11.1556 46.0032 11.1556C43.6136 11.1556 41.4835 12.8098 40.9236 15.0929C40.7598 15.7628 40.1726 16.2002 39.5172 16.2002Z" fill="#E0004D"/>
<path fill-rule="evenodd" clip-rule="evenodd" d="M45.9896 25.77C42.3984 25.77 39.1895 23.3775 38.2064 19.9598C37.9879 19.1942 38.4249 18.3876 39.1895 18.1689C39.9542 17.9501 40.7598 18.3876 40.9783 19.1532C41.6201 21.3542 43.682 22.8854 45.9896 22.8854C48.2973 22.8854 50.3592 21.3542 51.001 19.1668C51.2195 18.4013 52.0251 17.9638 52.7898 18.1825C53.5544 18.4013 53.9914 19.2079 53.7729 19.9734C52.7761 23.3912 49.5809 25.77 45.9896 25.77Z" fill="#E0004D"/>
<path fill-rule="evenodd" clip-rule="evenodd" d="M83.7727 25.7153C80.318 25.7153 77.3685 23.2408 76.7814 19.823C76.6448 19.0301 77.1774 18.2919 77.9557 18.1552C78.734 18.0185 79.485 18.538 79.6216 19.3309C79.963 21.3269 81.7517 22.8307 83.7727 22.8307C84.5646 22.8307 85.2201 23.4732 85.2201 24.2798C85.2201 25.0727 84.5783 25.7153 83.7727 25.7153Z" fill="#E0004D"/>
<path fill-rule="evenodd" clip-rule="evenodd" d="M78.1193 16.1729C77.3273 16.1729 76.6719 15.5304 76.6719 14.7238V1.44914C76.6719 0.656212 77.3137 0 78.1193 0C78.9113 0 79.5667 0.642541 79.5667 1.44914V14.7374C79.5667 15.5304 78.9249 16.1729 78.1193 16.1729Z" fill="#E0004D"/>
</svg>
